<svg xmlns="http://www.w3.org/2000/svg" viewBox="0 0 512 512" role="img" aria-label="CRM 24">
  <defs>
    <linearGradient id="bg" x1="58" y1="40" x2="454" y2="472" gradientUnits="userSpaceOnUse">
      <stop stop-color="#16263f"/>
      <stop offset=".52" stop-color="#07111f"/>
      <stop offset="1" stop-color="#050914"/>
    </linearGradient>
    <linearGradient id="main" x1="86" y1="118" x2="414" y2="384" gradientUnits="userSpaceOnUse">
      <stop stop-color="#35f0d4"/>
      <stop offset=".54" stop-color="#18c8ff"/>
      <stop offset="1" stop-color="#7c62ff"/>
    </linearGradient>
    <linearGradient id="badge" x1="330" y1="82" x2="444" y2="196" gradientUnits="userSpaceOnUse">
      <stop stop-color="#ffe46d"/>
      <stop offset="1" stop-color="#ff8b3d"/>
    </linearGradient>
    <filter id="shadow" x="-30%" y="-30%" width="160%" height="160%">
      <feDropShadow dx="0" dy="22" stdDeviation="21" flood-color="#000712" flood-opacity=".46"/>
    </filter>
    <filter id="glow" x="-45%" y="-45%" width="190%" height="190%">
      <feGaussianBlur stdDeviation="14" result="blur"/>
      <feMerge>
        <feMergeNode in="blur"/>
        <feMergeNode in="SourceGraphic"/>
      </feMerge>
    </filter>
  </defs>

  <rect width="512" height="512" rx="112" fill="url(#bg)"/>
  <path d="M82 152h348M82 256h348M82 360h348M152 82v348M256 82v348M360 82v348" stroke="#88a0c0" stroke-width="2" opacity=".07"/>
  <circle cx="392" cy="118" r="142" fill="#18c8ff" opacity=".12"/>
  <circle cx="126" cy="390" r="150" fill="#35f0d4" opacity=".1"/>

  <g filter="url(#glow)" opacity=".92">
    <path d="M102 352c28-83 74-137 137-161 61-24 122-16 183 22" fill="none" stroke="url(#main)" stroke-width="18" stroke-linecap="round"/>
    <path d="M102 352c80-16 146-18 198-6 48 11 83 34 112 68" fill="none" stroke="#7c62ff" stroke-width="14" stroke-linecap="round" opacity=".88"/>
  </g>

  <g filter="url(#shadow)">
    <rect x="82" y="166" width="348" height="184" rx="46" fill="#0a1627" stroke="url(#main)" stroke-width="10"/>
    <text
      x="256"
      y="287"
      text-anchor="middle"
      dominant-baseline="middle"
      fill="#f8fbff"
      font-family="Arial Black, Arial, Helvetica, sans-serif"
      font-size="104"
      font-weight="900"
      letter-spacing="-7"
    >CRM</text>
  </g>

  <g filter="url(#shadow)">
    <rect x="322" y="82" width="108" height="76" rx="32" fill="#07111f" stroke="url(#badge)" stroke-width="9"/>
    <text
      x="376"
      y="128"
      text-anchor="middle"
      dominant-baseline="middle"
      fill="#fff7d0"
      font-family="Arial Black, Arial, Helvetica, sans-serif"
      font-size="43"
      font-weight="900"
      letter-spacing="-2"
    >24</text>
  </g>

  <path d="M128 202 86 168M386 206l52-38M128 328l-48 36M385 328l54 40" stroke="#6b83a1" stroke-width="10" stroke-linecap="round" opacity=".78"/>
  <circle cx="86" cy="168" r="21" fill="#07111f" stroke="#35f0d4" stroke-width="11"/>
  <circle cx="438" cy="168" r="21" fill="#07111f" stroke="#ffe46d" stroke-width="11"/>
  <circle cx="80" cy="364" r="21" fill="#07111f" stroke="#7c62ff" stroke-width="11"/>
  <circle cx="439" cy="368" r="21" fill="#07111f" stroke="#18c8ff" stroke-width="11"/>

  <circle cx="257" cy="256" r="9" fill="#35f0d4"/>
  <circle cx="104" cy="108" r="8" fill="#18c8ff"/>
  <circle cx="412" cy="414" r="10" fill="#ffe46d"/>
</svg>
