<svg xmlns="http://www.w3.org/2000/svg" viewBox="0 0 512 512" role="img" aria-label="24CRM">
  <defs>
    <linearGradient id="bg" x1="64" y1="36" x2="448" y2="476" gradientUnits="userSpaceOnUse">
      <stop stop-color="#15243a"/>
      <stop offset=".48" stop-color="#07111f"/>
      <stop offset="1" stop-color="#050914"/>
    </linearGradient>
    <linearGradient id="accent" x1="106" y1="118" x2="414" y2="392" gradientUnits="userSpaceOnUse">
      <stop stop-color="#36f1d8"/>
      <stop offset=".52" stop-color="#18c8ff"/>
      <stop offset="1" stop-color="#7b61ff"/>
    </linearGradient>
    <linearGradient id="warm" x1="320" y1="112" x2="432" y2="224" gradientUnits="userSpaceOnUse">
      <stop stop-color="#ffe26a"/>
      <stop offset="1" stop-color="#ff8a3d"/>
    </linearGradient>
    <filter id="shadow" x="-30%" y="-30%" width="160%" height="160%">
      <feDropShadow dx="0" dy="20" stdDeviation="20" flood-color="#000712" flood-opacity=".44"/>
    </filter>
    <filter id="glow" x="-45%" y="-45%" width="190%" height="190%">
      <feGaussianBlur stdDeviation="12" result="blur"/>
      <feMerge>
        <feMergeNode in="blur"/>
        <feMergeNode in="SourceGraphic"/>
      </feMerge>
    </filter>
  </defs>

  <rect width="512" height="512" rx="112" fill="url(#bg)"/>
  <path d="M88 132h336M88 256h336M88 380h336M132 88v336M256 88v336M380 88v336" stroke="#6a7f9e" stroke-width="2" opacity=".08"/>
  <circle cx="400" cy="120" r="136" fill="#18c8ff" opacity=".12"/>
  <circle cx="124" cy="392" r="142" fill="#36f1d8" opacity=".1"/>

  <path
    d="M382 257c0 70-56 126-126 126s-126-56-126-126 56-126 126-126c33 0 63 13 86 34"
    fill="none"
    stroke="url(#accent)"
    stroke-width="30"
    stroke-linecap="round"
    filter="url(#glow)"
  />
  <path d="M346 130h66v66" fill="none" stroke="url(#warm)" stroke-width="24" stroke-linecap="round" stroke-linejoin="round"/>

  <g filter="url(#shadow)">
    <rect x="122" y="172" width="268" height="184" rx="48" fill="#0a1627" stroke="#2edfe8" stroke-width="9"/>
    <text
      x="256"
      y="278"
      text-anchor="middle"
      dominant-baseline="middle"
      fill="#f8fbff"
      font-family="Arial, Helvetica, sans-serif"
      font-size="112"
      font-weight="900"
      letter-spacing="-8"
    >24</text>
    <text
      x="256"
      y="325"
      text-anchor="middle"
      fill="#7f94b4"
      font-family="Arial, Helvetica, sans-serif"
      font-size="31"
      font-weight="800"
      letter-spacing="6"
    >CRM</text>
  </g>

  <path d="M137 210 88 168M375 207l52-36M142 329l-54 38M372 329l56 42" stroke="#607896" stroke-width="10" stroke-linecap="round" opacity=".78"/>
  <circle cx="88" cy="168" r="22" fill="#07111f" stroke="#36f1d8" stroke-width="12"/>
  <circle cx="427" cy="171" r="22" fill="#07111f" stroke="#ffe26a" stroke-width="12"/>
  <circle cx="88" cy="367" r="22" fill="#07111f" stroke="#7b61ff" stroke-width="12"/>
  <circle cx="428" cy="371" r="22" fill="#07111f" stroke="#18c8ff" stroke-width="12"/>

  <circle cx="255" cy="257" r="9" fill="#36f1d8"/>
  <circle cx="410" cy="414" r="10" fill="#ffe26a"/>
  <circle cx="112" cy="104" r="8" fill="#18c8ff"/>
</svg>
